<?xml version="1.0" encoding="UTF-8"?>
<svg version="1.1" xmlns="http://www.w3.org/2000/svg" width="64" height="66">
<path d="M0 0 C21.12 0 42.24 0 64 0 C64 21.78 64 43.56 64 66 C42.88 66 21.76 66 0 66 C0 44.22 0 22.44 0 0 Z " fill="#437994" transform="translate(0,0)"/>
<path d="M0 0 C21.12 0 42.24 0 64 0 C64 21.78 64 43.56 64 66 C42.88 66 21.76 66 0 66 C0 44.22 0 22.44 0 0 Z M9 17 C4.34530819 24.08463533 2.76710463 31.62291627 4 40 C6.99156121 48.80970782 11.73763621 55.85183159 20.16015625 60.0859375 C27.8398337 63.03861772 36.06452566 63.07636265 43.765625 60.16796875 C50.98243364 56.39554605 56.29050919 50.67689063 59 43 C61.2642226 35.39649573 60.67982999 27.03967477 57 20 C51.8543866 12.66602228 46.46629166 8.82209722 38 6 C25.6941792 4.95097921 17.39014424 7.80116716 9 17 Z " fill="#1F1F1F" transform="translate(0,0)"/>
<path d="M0 0 C1.32 0.33 2.64 0.66 4 1 C4 1.66 4 2.32 4 3 C5.32 3 6.64 3 8 3 C8 2.34 8 1.68 8 1 C16.58 1 25.16 1 34 1 C33.06211364 5.68943178 32.6623985 6.56106861 30 10 C29.29485154 12.14733927 29.29485154 12.14733927 29 14 C28.34 14 27.68 14 27 14 C27 14.66 27 15.32 27 16 C25.49021321 17.22067868 23.97616333 18.43827273 22.41015625 19.5859375 C20.59548488 21.16368428 20.59548488 21.16368428 20 25 C23.3 24.67 26.6 24.34 30 24 C30.33 22.35 30.66 20.7 31 19 C31.99 18.67 32.98 18.34 34 18 C34.69658363 16.34561387 35.36096883 14.67745682 36 13 C36.98020375 11.9805881 37.97803008 10.97753644 39 10 C39.33 9.01 39.66 8.02 40 7 C40.66 7 41.32 7 42 7 C42.33 5.68 42.66 4.36 43 3 C47.50861065 8.68476994 47.67032632 13.93861725 47 21 C46.07965834 24.55261418 45.04477574 27.93283639 43 31 C40.62222247 32.08727434 39.31619044 32.06838883 36.76391602 31.51635742 C33.65168536 30.93492753 30.77109185 30.8873408 27.60546875 30.90234375 C25.80239258 30.90717773 25.80239258 30.90717773 23.96289062 30.91210938 C22.71701172 30.92048828 21.47113281 30.92886719 20.1875 30.9375 C18.92228516 30.94201172 17.65707031 30.94652344 16.35351562 30.95117188 C13.2356289 30.96293749 10.11783867 30.97937728 7 31 C7.81825274 27.34566735 9.26434698 24.3203797 11 21 C11.66 21 12.32 21 13 21 C13.66 19.35 14.32 17.7 15 16 C15.66 16 16.32 16 17 16 C17.12375 15.360625 17.2475 14.72125 17.375 14.0625 C17.58125 13.381875 17.7875 12.70125 18 12 C18.66 11.67 19.32 11.34 20 11 C20.65213292 8.97536745 20.65213292 8.97536745 21 7 C15.14959006 7.50357209 15.14959006 7.50357209 10.51171875 10.69140625 C9.28504265 12.82028245 9.28504265 12.82028245 8 16 C7.34 16 6.68 16 6 16 C5.855625 16.61875 5.71125 17.2375 5.5625 17.875 C5 20 5 20 4 22 C3.34 22 2.68 22 2 22 C2 22.99 2 23.98 2 25 C1.34 25 0.68 25 0 25 C-0.33 25.99 -0.66 26.98 -1 28 C-3 27 -3 27 -4.125 24.625 C-6.42265737 15.10613376 -5.05361038 8.32040851 0 0 Z " fill="#EEF2F5" transform="translate(11,18)"/>
<path d="M0 0 C3.98585145 2.72074372 7.22484624 5.41035375 9 10 C8.125 12.25 8.125 12.25 7 14 C6.34 14 5.68 14 5 14 C4.88398437 14.58652344 4.76796875 15.17304688 4.6484375 15.77734375 C3.96109448 18.13335688 3.07592958 19.59714994 1.625 21.5625 C1.20476563 22.14128906 0.78453125 22.72007813 0.3515625 23.31640625 C-1 25 -1 25 -2.6015625 26.52734375 C-4.25588781 28.0610789 -4.25588781 28.0610789 -5 31 C-8.21451269 32.60725635 -11.43612536 32.05748185 -15 32 C-14.52354792 27.71193127 -13.34097516 25.73352513 -10 23 C-9.34 23 -8.68 23 -8 23 C-8 22.34 -8 21.68 -8 21 C-7.34 21 -6.68 21 -6 21 C-5.896875 20.2575 -5.79375 19.515 -5.6875 18.75 C-4.94730389 15.78921557 -3.84280403 14.38028854 -2 12 C-1.67 10.68 -1.34 9.36 -1 8 C-9.58 8 -18.16 8 -27 8 C-27 8.66 -27 9.32 -27 10 C-28.32 10 -29.64 10 -31 10 C-31 9.34 -31 8.68 -31 8 C-31.99 7.67 -32.98 7.34 -34 7 C-32.48660052 2.76248146 -29.81008791 1.19812764 -26 -1 C-17.91196945 -4.76187467 -7.87523636 -3.98952652 0 0 Z " fill="#417893" transform="translate(46,11)"/>
<path d="M0 0 C6.11973075 4.39923705 10.39136294 9.04003574 12.75 16.3125 C13.72764746 26.82221019 12.57789476 34.93778451 5.75 43.375 C0.87674762 48.56265576 -5.15982277 51.5653036 -12.26171875 52.203125 C-22.53103729 52.40156594 -28.67051259 49.88536346 -36.25 42.9375 C-38 41 -38 41 -39 38 C-36 39 -36 39 -34.3125 41.3125 C-30.49115392 45.75352382 -24.50559337 48.70116253 -18.6171875 49.203125 C-10.93929106 49.33437109 -4.94884042 48.24365933 1.75 44.4375 C7.83233275 37.84830619 10.36661033 29.71891569 10.28515625 20.921875 C9.65151348 14.42920665 6.51961025 8.65656813 2 4 C-4.82506276 -0.9804512 -12.77971895 -1.93517242 -21 -1 C-27.71829784 0.91803256 -32.56657122 4.14766231 -36.33984375 10.12109375 C-39.87457647 16.52459505 -41.16851697 22.77726686 -42 30 C-42.33 30 -42.66 30 -43 30 C-43.50289432 20.03524212 -42.75012564 12.87514697 -36.125 5.125 C-26.6922296 -5.19556055 -11.89975944 -7.41010661 0 0 Z " fill="#5A5C5B" transform="translate(47,10)"/>
<path d="M0 0 C8.58 0 17.16 0 26 0 C25 2 25 2 22.125 3.125 C14.35666974 5.12302733 7.07424557 4.77293097 0 1 C0 0.67 0 0.34 0 0 Z " fill="#DDE4E7" transform="translate(19,56)"/>
<path d="M0 0 C0 0.33 0 0.66 0 1 C-8.58 1 -17.16 1 -26 1 C-25 -1 -25 -1 -22.625 -2.125 C-14.48826851 -4.08903863 -7.58116713 -3.43298134 0 0 Z " fill="#DDE4E7" transform="translate(45,11)"/>
<path d="M0 0 C0.763125 0.495 1.52625 0.99 2.3125 1.5 C-0.69781744 2.43423645 -1.55400268 2.54449911 -4.6875 1.5 C-6.49804127 1.40601771 -8.31202781 1.37008013 -10.125 1.375 C-11.54619141 1.37113281 -11.54619141 1.37113281 -12.99609375 1.3671875 C-15.38890459 1.48526525 -17.40086153 1.81887365 -19.6875 2.5 C-19.6875 1.84 -19.6875 1.18 -19.6875 0.5 C-13.21811224 -2.43637672 -6.59197568 -2.68148163 0 0 Z " fill="#606161" transform="translate(41.6875,7.5)"/>
<path d="M0 0 C2.46278801 2.46278801 2.99771255 4.70676982 4 8 C5.99983534 7.20882096 5.99983534 7.20882096 8 6 C8.33 5.01 8.66 4.02 9 3 C9 4.32 9 5.64 9 7 C8.34 7 7.68 7 7 7 C6.67 8.65 6.34 10.3 6 12 C3.63189682 11.05275873 2.24792047 10.34708866 0.75 8.25 C-0.19251213 5.42246362 -0.1345485 2.96006696 0 0 Z " fill="#758389" transform="translate(5,37)"/>
<path d="M0 0 C0 3 0 3 -2 6 C0.64 6 3.28 6 6 6 C4 8 4 8 2.0546875 8.1953125 C0.03645833 8.13020833 -1.98177083 8.06510417 -4 8 C-3.50168276 4.31245243 -2.89932357 2.39509338 0 0 Z " fill="#8DAEBF" transform="translate(35,35)"/>
<path d="M0 0 C0.33 0 0.66 0 1 0 C1.2954439 5.02254631 0.98514628 7.89542386 -2 12 C-2.66 11.67 -3.32 11.34 -4 11 C-2.68 7.37 -1.36 3.74 0 0 Z " fill="#6A6C6B" transform="translate(58,36)"/>
</svg>
